<?xml version="1.0"?>
<svg xmlns="http://www.w3.org/2000/svg" xmlns:xlink="http://www.w3.org/1999/xlink" xmlns:svgjs="http://svgjs.com/svgjs" version="1.1" width="512" height="512" x="0" y="0" viewBox="0 0 512 512" style="enable-background:new 0 0 512 512" xml:space="preserve" class=""><g><g xmlns="http://www.w3.org/2000/svg"><g fill="#57a4ff"><path d="m256 16c-132.55 0-240 107.45-240 240s107.45 240 240 240 240-107.45 240-240-107.45-240-240-240zm0 440c-110.46 0-200-89.54-200-200s89.54-200 200-200 200 89.54 200 200-89.54 200-200 200z" fill="#849dff" data-original="#57a4ff" style="" class=""/><rect height="144" rx="8" width="48" x="296.21" y="184" fill="#849dff" data-original="#57a4ff" style="" class=""/><path d="m268.53 249.27-88.2-64.35a8 8 0 0 0 -12.33 6.73v128.7a8 8 0 0 0 12.33 6.73l88.2-64.35a8 8 0 0 0 0-13.46z" fill="#849dff" data-original="#57a4ff" style="" class=""/></g><g fill="#004fac"><path d="m431.362 80.638a248 248 0 1 0 -350.724 350.724 248 248 0 1 0 350.724-350.724zm-11.313 339.411a232 232 0 0 1 -328.1-328.1 232 232 0 0 1 328.1 328.1z" fill="#6d61f3" data-original="#004fac" style="" class=""/><path d="m256 48c-114.691 0-208 93.309-208 208s93.309 208 208 208 208-93.309 208-208-93.309-208-208-208zm0 400c-105.869 0-192-86.131-192-192s86.131-192 192-192 192 86.131 192 192-86.131 192-192 192z" fill="#6d61f3" data-original="#004fac" style="" class=""/><path d="m256 96a8 8 0 0 0 0-16 176.046 176.046 0 0 0 -162.775 108.95 8 8 0 1 0 14.791 6.1 160.053 160.053 0 0 1 147.984-99.05z" fill="#6d61f3" data-original="#004fac" style="" class=""/><path d="m336.206 176h-32a16.019 16.019 0 0 0 -16 16v128a16.019 16.019 0 0 0 16 16h32a16.019 16.019 0 0 0 16-16v-128a16.019 16.019 0 0 0 -16-16zm0 144h-32l-.01-128h32.01z" fill="#6d61f3" data-original="#004fac" style="" class=""/><path d="m273.088 242.691-88.047-64.23q-.191-.14-.389-.267a16 16 0 0 0 -24.652 13.459v128.694a16 16 0 0 0 24.652 13.459q.2-.127.389-.267l88.047-64.23a16 16 0 0 0 0-26.618zm-9.271 13.576-87.817 64.063v-128.66l87.817 64.063q.191.139.389.267-.198.127-.389.267z" fill="#6d61f3" data-original="#004fac" style="" class=""/></g></g></g></svg>
