<svg height="480pt" viewBox="0 0 480 480" width="480pt" xmlns="http://www.w3.org/2000/svg"><path d="m432 240c0 106.039062-85.960938 192-192 192s-192-85.960938-192-192 85.960938-192 192-192 192 85.960938 192 192zm0 0" fill="#cfd2fc"/><path d="m240 480c-132.546875 0-240-107.453125-240-240s107.453125-240 240-240 240 107.453125 240 240c-.148438 132.484375-107.515625 239.851562-240 240zm0-464c-123.710938 0-224 100.289062-224 224s100.289062 224 224 224 224-100.289062 224-224c-.140625-123.652344-100.347656-223.859375-224-224zm0 0" fill="#8690fa"/><g fill="#5153ff"><path d="m240 360c-66.273438 0-120-53.726562-120-120s53.726562-120 120-120 120 53.726562 120 120c0 4.417969-3.582031 8-8 8s-8-3.582031-8-8c-.035156-52.953125-39.875-97.410156-92.507812-103.230469-52.628907-5.816406-101.222657 28.863281-112.824219 80.53125-11.601563 51.664063 17.496093 103.789063 67.5625 121.03125 50.066406 17.246094 105.089843-5.910156 127.761719-53.765625 1.898437-3.992187 6.671874-5.6875 10.664062-3.789062 3.992188 1.894531 5.6875 6.671875 3.792969 10.664062-19.992188 41.773438-62.136719 68.414063-108.449219 68.558594zm0 0"/><path d="m352 248c-1.730469.003906-3.417969-.558594-4.800781-1.601562l-32-24c-3.535157-2.648438-4.25-7.664063-1.597657-11.199219 2.648438-3.535157 7.664063-4.25 11.199219-1.597657l25.597657 19.199219 19.203124-25.601562c2.648438-3.535157 7.664063-4.25 11.199219-1.597657 3.535157 2.648438 4.25 7.664063 1.597657 11.199219l-24 32c-1.507813 2.011719-3.878907 3.199219-6.398438 3.199219zm0 0"/></g></svg>